<?xml version="1.0" standalone="no"?>
<!DOCTYPE svg PUBLIC "-//W3C//DTD SVG 20010904//EN"
 "http://www.w3.org/TR/2001/REC-SVG-20010904/DTD/svg10.dtd">
<svg version="1.0" xmlns="http://www.w3.org/2000/svg"
 width="700.000000pt" height="700.000000pt" viewBox="0 0 700.000000 700.000000"
 preserveAspectRatio="xMidYMid meet">
<metadata>
Created by potrace 1.14, written by Peter Selinger 2001-2017
</metadata>
<g transform="translate(0.000000,700.000000) scale(0.100000,-0.100000)"
fill="#000000" stroke="none">
<path d="M3205 6984 c-627 -65 -1133 -241 -1630 -569 -474 -313 -867 -739
-1143 -1241 -223 -405 -365 -868 -412 -1344 -15 -148 -15 -512 0 -660 47 -476
189 -939 412 -1344 378 -687 980 -1235 1688 -1536 80 -34 159 -68 175 -75 42
-19 274 -90 370 -114 88 -22 254 -51 440 -77 141 -20 539 -22 725 -4 645 63
1246 296 1765 685 720 540 1202 1329 1350 2209 35 212 46 349 46 586 0 237
-11 374 -46 586 -245 1457 -1400 2614 -2857 2858 -278 47 -652 64 -883 40z"/>
</g>
</svg>
